<svg id="Capa_1" enable-background="new 0 0 512 512" height="512" viewBox="0 0 512 512" width="512" xmlns="http://www.w3.org/2000/svg" xmlns:xlink="http://www.w3.org/1999/xlink"><linearGradient id="SVGID_1_" gradientUnits="userSpaceOnUse" x1="256" x2="256" y1="512" y2="0"><stop offset="0" stop-color="#5558ff"/><stop offset="1" stop-color="#00c0ff"/></linearGradient><g><g><path d="m256 90c-8.284 0-15 6.716-15 15v53.787l-38.016 38.016c-5.858 5.858-5.858 15.355 0 21.213 5.857 5.857 15.355 5.858 21.213 0l42.409-42.409c2.813-2.813 4.394-6.629 4.394-10.607v-60c0-8.284-6.716-15-15-15zm241 332h-45v-45c0-8.284-6.716-15-15-15h-166v-32.689c83.977-7.604 150-78.387 150-164.311 0-90.981-74.019-165-165-165s-165 74.019-165 165c0 85.924 66.023 156.707 150 164.311v32.689h-166c-8.284 0-15 6.716-15 15v45h-45c-8.284 0-15 6.716-15 15v60c0 8.284 6.716 15 15 15h120c8.284 0 15-6.716 15-15v-60c0-8.284-6.716-15-15-15h-45v-30h151v30h-45c-8.284 0-15 6.716-15 15v60c0 8.284 6.716 15 15 15h120c8.284 0 15-6.716 15-15v-60c0-8.284-6.716-15-15-15h-45v-30h151v30h-45c-8.284 0-15 6.716-15 15v60c0 8.284 6.716 15 15 15h120c8.284 0 15-6.716 15-15v-60c0-8.284-6.716-15-15-15zm-377 30v30h-90v-30zm181 0v30h-90v-30zm-45-152c-74.439 0-135-60.561-135-135s60.561-135 135-135 135 60.561 135 135-60.561 135-135 135zm226 182h-90v-30h90z" fill="url(#SVGID_1_)"/></g></g></svg>