<?xml version="1.0" encoding="utf-8"?>
<!-- Generator: Adobe Illustrator 19.0.0, SVG Export Plug-In . SVG Version: 6.00 Build 0)  -->
<svg xmlns="http://www.w3.org/2000/svg" xmlns:xlink="http://www.w3.org/1999/xlink" version="1.1" id="Layer_1" x="0px" y="0px" viewBox="0 2 98 98" style="enable-background:new 0 2 98 98;" xml:space="preserve" width="512" height="512">
<style type="text/css">
	.st0{fill:url(#SVGID_1_);}
	.st1{fill:url(#SVGID_2_);}
</style>
<g>
	<linearGradient id="SVGID_1_" gradientUnits="userSpaceOnUse" x1="48.9523" y1="5.5" x2="48.9523" y2="96.7623">
		<stop offset="0" style="stop-color:#00EFD1"/>
		<stop offset="1" style="stop-color:#00ACEA"/>
	</linearGradient>
	<path class="st0" d="M13.9,51.1c0.7,0,1.4-0.2,2-0.7l20.4-17.7l13,11.3c1.2,1,2.9,1,4-0.1l20.2-18.5l5.1,5.1   c0.6,0.6,1.3,0.9,2.1,0.9c0.3,0,0.6,0,0.9-0.1c1.1-0.3,1.9-1.2,2.1-2.3L87,12.1c0.2-1-0.1-2-0.8-2.7c-0.7-0.7-1.7-1-2.7-0.8   l-17,3.2c-1.1,0.2-2,1-2.3,2.1c-0.3,1.1,0,2.2,0.7,3l4.3,4.3l-18,16.5l-13-11.3c-1.1-1-2.8-1-3.9,0L11.9,45.8   c-1.3,1.1-1.4,3-0.3,4.2C12.2,50.7,13.1,51.1,13.9,51.1z M80.3,15.3l-1.4,7l-5.7-5.7L80.3,15.3z"/>
	<linearGradient id="SVGID_2_" gradientUnits="userSpaceOnUse" x1="49" y1="5.5" x2="49" y2="96.7623">
		<stop offset="0" style="stop-color:#00EFD1"/>
		<stop offset="1" style="stop-color:#00ACEA"/>
	</linearGradient>
	<path class="st1" d="M94.2,87.5H88V51.2c0-1.7-1.3-3-3-3s-3,1.3-3,3v36.3h-6V40.2c0-1.7-1.3-3-3-3s-3,1.3-3,3v47.3h-6V61.2   c0-1.7-1.3-3-3-3s-3,1.3-3,3v26.3h-6V69.2c0-1.7-1.3-3-3-3s-3,1.3-3,3v18.3h-6V51.2c0-1.7-1.3-3-3-3s-3,1.3-3,3v36.3h-6V77.2   c0-1.7-1.3-3-3-3s-3,1.3-3,3v10.3h-6V68.2c0-1.7-1.3-3-3-3s-3,1.3-3,3v19.3H3.8c-1.7,0-3,1.3-3,3s1.3,3,3,3h90.4c1.7,0,3-1.3,3-3   S95.9,87.5,94.2,87.5z"/>
</g>
</svg>
