<?xml version="1.0" encoding="iso-8859-1"?>
<!-- Generator: Adobe Illustrator 19.0.0, SVG Export Plug-In . SVG Version: 6.00 Build 0)  -->
<svg version="1.1" id="Capa_1" xmlns="http://www.w3.org/2000/svg" xmlns:xlink="http://www.w3.org/1999/xlink" x="0px" y="0px"
	 viewBox="0 0 512 512" style="enable-background:new 0 0 512 512;" xml:space="preserve">
<g>
	<path style="fill:#696578;" d="M256,80c-4.418,0-8-3.582-8-8V8c0-4.418,3.582-8,8-8c4.418,0,8,3.582,8,8v64
		C264,76.418,260.419,80,256,80z"/>
	<path style="fill:#696578;" d="M324.241,497.216L264,459.565V384c0-4.418-3.582-8-8-8c-4.418,0-8,3.582-8,8v75.603l-59.288,37.643
		c-3.73,2.368-4.834,7.313-2.466,11.042c2.368,3.729,7.312,4.833,11.042,2.466L248,478.556V504c0,4.418,3.582,8,8,8
		c4.418,0,8-3.582,8-8v-25.566l51.76,32.35c3.977,2.486,9.374,0.928,11.43-3.275C328.967,503.878,327.666,499.357,324.241,497.216z"
		/>
</g>
<path style="fill:#F082A6;" d="M351.994,88.002c-1.202,0-2.423-0.272-3.571-0.847L256,40.944l-92.422,46.211
	c-3.952,1.978-8.757,0.373-10.733-3.577c-1.976-3.952-0.375-8.758,3.578-10.733l96-48c2.252-1.127,4.903-1.127,7.155,0l96,48
	c3.952,1.976,5.554,6.781,3.578,10.733C357.754,86.381,354.929,88.002,351.994,88.002z"/>
<path style="fill:#F0F0F1;" d="M480,104H32c-4.418,0-8,3.582-8,8v272c0,4.418,3.582,8,8,8h448c4.418,0,8-3.582,8-8V112
	C488,107.582,484.419,104,480,104z"/>
<path style="fill:#E1E0E4;" d="M488,112c0-4.418-3.582-8-8-8H32c-4.418,0-8,3.582-8,8v24h464V112z"/>
<path style="fill:#E6608D;" d="M504,72H8c-4.418,0-8,3.582-8,8v32c0,4.418,3.582,8,8,8h496c4.418,0,8-3.582,8-8V80
	C512,75.582,508.419,72,504,72z"/>
<path style="fill:#D4506F;" d="M504,104H8c-4.418,0-8-3.582-8-8v16c0,4.418,3.582,8,8,8h496c4.418,0,8-3.582,8-8V96
	C512,100.418,508.419,104,504,104z"/>
<path style="fill:#CDBCE8;" d="M200,224h-32c-4.418,0-8,3.582-8,8v96c0,4.418,3.582,8,8,8h32c4.418,0,8-3.582,8-8v-96
	C208,227.582,204.419,224,200,224z"/>
<path style="fill:#BA9DD4;" d="M272,200h-32c-4.418,0-8,3.582-8,8v120c0,4.418,3.582,8,8,8h32c4.418,0,8-3.582,8-8V208
	C280,203.582,276.419,200,272,200z"/>
<path style="fill:#AD7DC9;" d="M344,168h-32c-4.418,0-8,3.582-8,8v152c0,4.418,3.582,8,8,8h32c4.418,0,8-3.582,8-8V176
	C352,171.582,348.419,168,344,168z"/>
<path style="fill:#787485;" d="M384,336H128c-4.418,0-8-3.582-8-8V160c0-4.418,3.582-8,8-8c4.418,0,8,3.582,8,8v160h248
	c4.418,0,8,3.582,8,8S388.419,336,384,336z"/>
<g>
</g>
<g>
</g>
<g>
</g>
<g>
</g>
<g>
</g>
<g>
</g>
<g>
</g>
<g>
</g>
<g>
</g>
<g>
</g>
<g>
</g>
<g>
</g>
<g>
</g>
<g>
</g>
<g>
</g>
</svg>
